<svg xmlns="http://www.w3.org/2000/svg" viewBox="0 0 32 32" fill="none" class="globals_Icon_3XqyI">
    <circle cx="16" cy="16" r="16" fill="#BDCCDB"/>
    <circle cx="16" cy="16" r="16" fill="url(#a)"/>
    <circle cx="16" cy="16" r="14.27" fill="#98A8B7"/>
    <circle cx="16" cy="16" r="14.27" fill="url(#b)"/>
    <circle cx="16" cy="16" r="14.27" stroke="#7A92A9"/>
    <circle cx="16" cy="16" r="11.13" fill="#BDCCDB"/>
    <circle cx="16" cy="16" r="11.13" fill="url(#c)"/>
    <circle cx="16" cy="16" r="10.21" fill="#5792C8"/>
    <circle cx="16" cy="16" r="10.21" fill="url(#d)"/>
    <path fill="#BDCCDB" fill-rule="evenodd"
          d="M20.6 17.95a4.06 4.06 0 1 0-4.05-3.86l-2.5 3.54h-.08a3 3 0 0 0-1.87.66l-5.77-2.37c0 1.54.3 3.22.65 3.61.19.2 2.15.93 4.07 1.6a2.96 2.96 0 0 0 5.87-.72l3.34-2.47.34.01Zm-8.4 3.57a2 2 0 1 0 1.02-2.78l.97.4v.02a1.45 1.45 0 0 1-.45 2.87v.01l-.13-.04a202.4 202.4 0 0 1-1.41-.48Zm8.4-4.92a2.7 2.7 0 1 0 0-5.41 2.7 2.7 0 0 0 0 5.41Zm1.8-2.7a1.8 1.8 0 1 1-3.6 0 1.8 1.8 0 0 1 3.6 0Z"
          clip-rule="evenodd"/>
    <path fill="url(#e)" fill-rule="evenodd"
          d="M20.6 17.95a4.06 4.06 0 1 0-4.05-3.86l-2.5 3.54h-.08a3 3 0 0 0-1.87.66l-5.77-2.37c0 1.54.3 3.22.65 3.61.19.2 2.15.93 4.07 1.6a2.96 2.96 0 0 0 5.87-.72l3.34-2.47.34.01Zm-8.4 3.57a2 2 0 1 0 1.02-2.78l.97.4v.02a1.45 1.45 0 0 1-.45 2.87v.01l-.13-.04a202.4 202.4 0 0 1-1.41-.48Zm8.4-4.92a2.7 2.7 0 1 0 0-5.41 2.7 2.7 0 0 0 0 5.41Zm1.8-2.7a1.8 1.8 0 1 1-3.6 0 1.8 1.8 0 0 1 3.6 0Z"
          clip-rule="evenodd"/>
    <defs>
        <linearGradient id="a" x1="8.44" x2="23.19" y1="1.75" y2="22.94" gradientUnits="userSpaceOnUse">
            <stop stop-color="#fff" stop-opacity=".54"/>
            <stop offset="1" stop-color="#fff" stop-opacity="0"/>
        </linearGradient>
        <linearGradient id="b" x1="9" x2="22.44" y1="3.13" y2="24.63" gradientUnits="userSpaceOnUse">
            <stop stop-color="#fff" stop-opacity=".25"/>
            <stop offset="1" stop-color="#fff" stop-opacity="0"/>
        </linearGradient>
        <linearGradient id="c" x1="10.31" x2="19.69" y1="6.38" y2="23.13" gradientUnits="userSpaceOnUse">
            <stop stop-color="#fff" stop-opacity=".65"/>
            <stop offset="1" stop-color="#fff" stop-opacity="0"/>
        </linearGradient>
        <linearGradient id="d" x1="10" x2="20.5" y1="8" y2="26.21" gradientUnits="userSpaceOnUse">
            <stop stop-color="#72A5D3"/>
            <stop offset="1" stop-color="#4F7294"/>
        </linearGradient>
        <linearGradient id="e" x1="12.19" x2="18.56" y1="13.56" y2="23.56" gradientUnits="userSpaceOnUse">
            <stop stop-color="#fff" stop-opacity=".44"/>
            <stop offset="1" stop-color="#fff" stop-opacity="0"/>
        </linearGradient>
    </defs>
</svg>